<svg width="16" height="19" viewBox="0 0 16 19" fill="none" xmlns="http://www.w3.org/2000/svg">
<path d="M5.184 3.8C4.90667 3.84267 4.512 3.87467 4 3.896C3.488 3.896 2.96533 3.864 2.432 3.8C1.89867 3.736 1.44 3.61867 1.056 3.448C0.672 3.256 0.458667 2.97867 0.416 2.616C0.394667 2.25333 0.501333 1.96533 0.736 1.752C0.992 1.53867 1.29067 1.37867 1.632 1.272C1.97333 1.144 2.272 1.06933 2.528 1.048C2.80533 1.00533 2.944 0.983999 2.944 0.983999L11.904 0.151999C11.904 0.151999 12.0533 0.151999 12.352 0.151999C12.6507 0.130665 12.992 0.141333 13.376 0.184C13.7813 0.226666 14.144 0.333333 14.464 0.504C14.784 0.653332 14.9547 0.898666 14.976 1.24C15.0187 1.58133 14.912 1.86933 14.656 2.104C14.4213 2.31733 14.1333 2.49867 13.792 2.648C13.4507 2.776 13.152 2.872 12.896 2.936C12.64 2.97867 12.512 3 12.512 3L10.464 3.32C10.5493 3.85333 10.6453 4.61067 10.752 5.592C10.8587 6.552 10.9653 7.61867 11.072 8.792C11.1787 9.96533 11.2747 11.1173 11.36 12.248C11.4453 13.3787 11.5093 14.392 11.552 15.288C11.616 16.184 11.648 16.824 11.648 17.208C11.648 17.6987 11.5093 18.072 11.232 18.328C10.976 18.5627 10.6667 18.7333 10.304 18.84C9.96267 18.9253 9.65333 18.9787 9.376 19C9.12 19 8.992 19 8.992 19C8.992 19 8.85333 19 8.576 19C8.29867 18.9787 7.97867 18.8933 7.616 18.744C7.27467 18.5947 6.96533 18.3173 6.688 17.912C6.432 17.5067 6.304 16.8987 6.304 16.088C6.304 15.3627 6.26133 14.4773 6.176 13.432C6.112 12.3867 6.02667 11.3093 5.92 10.2C5.81333 9.06933 5.696 8.024 5.568 7.064C5.46133 6.104 5.36533 5.32533 5.28 4.728C5.216 4.10933 5.184 3.8 5.184 3.8Z" fill="#63FF00"/>
</svg>
